# xmcd
#
# Track frame offsets: 
#        150
#        18267
#        49105
#        81877
#        82652
#        136827
#
# Disc length: 2279 seconds
#
# Revision: 3
# Processed by: cddbd v1.5.2PL0 Copyright (c) Steve Scherf et al.
# Submitted via: ExactAudioCopyFreeDBPlugin 1.0
#
DISCID=3808e506
DTITLE=Teddy Pendergrass - Live!  Coast to Coast
DYEAR=1994
DGENRE=SMB
TTITLE0=Life is Song Worth Singing
TTITLE1=Only You
TTITLE2=Medley:  If You Don't Know Me By Now - The Love I Lost - Bad L
TTITLE2=uck - Wake Up Everybody
TTITLE3=Introduction
TTITLE4=When Somebody Loves You Back
TTITLE5=Get Up, Get Down, Get Funky, Get Loose
EXTD=Disc 1
EXTT0=
EXTT1=
EXTT2=The love I lost/Bad luck/ Wake up \neverybody\n
EXTT3=
EXTT4=
EXTT5=
PLAYORDER=
